{"title":"Yoko  (2012) SATRip [Russian]","uid":8146571,"size":1472877886,"categoryP":"video","categoryS":"movies","magnet":"?xt=urn:btih:6ef2e60f6443c4e366ce7564a839a800867a25d3&amp;dn=Yoko++%282012%29+SATRip+%5BRussian%5D&amp;tr=udp%3A%2F%2Ftracker.openbittorrent.com%3A80&amp;tr=udp%3A%2F%2Fopen.demonii.com%3A1337&amp;tr=udp%3A%2F%2Ftracker.coppersurfer.tk%3A6969&amp;tr=udp%3A%2F%2Fexodus.desync.com%3A6969","seeders":0,"leechers":0,"uploader":"yfjfrj","files":-1,"time":1360940869,"description":"MediaInfo 0.7.61\nGeneral\nComplete name                            : D:Yoko..avi\nFormat                                   : AVI\nFormat/Info                              : Audio Video Interleave\nFile size                                : 1.37 GiB\nDuration                                 : 1h 38mn\nOverall bit rate                         : 1 990 Kbps\nWriting application                      : VirtualDubModRus 1.5.10.2 (build 2542/release)\nWriting library                          : VirtualDub build 30009/release\n\nVideo\nID                                       : 0\nFormat                                   : MPEG-4 Visual\nFormat profile                           : Advanced Simple@L5\nFormat settings, BVOP                    : 2\nFormat settings, QPel                    : No\nFormat settings, GMC                     : No warppoints\nFormat settings, Matrix                  : Default (H.263)\nMuxing mode                              : Packed bitstream\nCodec ID                                 : XVID\nCodec ID/Hint                            : XviD\nDuration                                 : 1h 38mn\nBit rate                                 : 1 788 Kbps\nWidth                                    : 720 pixels\nHeight                                   : 400 pixels\nDisplay aspect ratio                     : 16:9\nFrame rate                               : 25.000 fps\nColor space                              : YUV\nChroma subsampling                       : 4:2:0\nBit depth                                : 8 bits\nScan type                                : Progressive\nCompression mode                         : Lossy\nBits/(Pixel*Frame)                       : 0.248\nStream size                              : 1.23 GiB (90%)\nWriting library                          : XviD 64\n\nAudio\nID                                       : 1\nFormat                                   : AC-3\nFormat/Info                              : Audio Coding 3\nMode extension                           : CM (complete main)\nFormat settings, Endianness              : Big\nCodec ID                                 : 2000\nDuration                                 : 1h 38mn\nBit rate mode                            : Constant\nBit rate                                 : 192 Kbps\nChannel(s)                               : 2 channels\nChannel positions                        : Front: L R\nSampling rate                            : 48.0 KHz\nBit depth                                : 16 bits\nCompression mode                         : Lossy\nStream size                              : 136 MiB (10%)\nAlignment                                : Aligned on interleaves\nInterleave, duration                     : 40 ms (1.00 video frame)\nInterleave, preload duration             : 512 ms\n\nScreenshots: &lt;a href=&quot;\nhttp://img689.imageshack.us/img689/6559/grab53j.png&quot; rel=&quot;nofollow&quot; target=&quot;_NEW&quot;&gt;\nhttp://img689.imageshack.us/img689/6559/grab53j.png&lt;/a&gt; &lt;a href=&quot;\nhttp://img29.imageshack.us/img29/6434/grab54.png&quot; rel=&quot;nofollow&quot; target=&quot;_NEW&quot;&gt;\nhttp://img29.imageshack.us/img29/6434/grab54.png&lt;/a&gt; &lt;a href=&quot;\nhttp://img11.imageshack.us/img11/3166/grab55f.png&quot; rel=&quot;nofollow&quot; target=&quot;_NEW&quot;&gt;\nhttp://img11.imageshack.us/img11/3166/grab55f.png&lt;/a&gt; &lt;a href=&quot;\nhttp://img89.imageshack.us/img89/1833/grab56.png&quot; rel=&quot;nofollow&quot; target=&quot;_NEW&quot;&gt;\nhttp://img89.imageshack.us/img89/1833/grab56.png&lt;/a&gt; &lt;a href=&quot;\nhttp://img850.imageshack.us/img850/2410/grab57.png&quot; rel=&quot;nofollow&quot; target=&quot;_NEW&quot;&gt;\nhttp://img850.imageshack.us/img850/2410/grab57.png&lt;/a&gt; &lt;a href=&quot;\nhttp://img17.imageshack.us/img17/8002/grab58.png&quot; rel=&quot;nofollow&quot; target=&quot;_NEW&quot;&gt;\nhttp://img17.imageshack.us/img17/8002/grab58.png&lt;/a&gt; &lt;a href=&quot;\nhttp://img502.imageshack.us/img502/8350/grab59.png&quot; rel=&quot;nofollow&quot; target=&quot;_NEW&quot;&gt;\nhttp://img502.imageshack.us/img502/8350/grab59.png&lt;/a&gt; &lt;a href=&quot;\nhttp://img109.imageshack.us/img109/9817/grab60r.png&quot; rel=&quot;nofollow&quot; target=&quot;_NEW&quot;&gt;\nhttp://img109.imageshack.us/img109/9817/grab60r.png&lt;/a&gt; &lt;a href=&quot;\nhttp://img818.imageshack.us/img818/8250/grab61w.png&quot; rel=&quot;nofollow&quot; target=&quot;_NEW&quot;&gt;\nhttp://img818.imageshack.us/img818/8250/grab61w.png&lt;/a&gt; &lt;a href=&quot;\nhttp://img35.imageshack.us/img35/1903/grab62.png&quot; rel=&quot;nofollow&quot; target=&quot;_NEW&quot;&gt;\nhttp://img35.imageshack.us/img35/1903/grab62.png&lt;/a&gt; &lt;a href=&quot;\nhttp://img259.imageshack.us/img259/2752/grab63w.png&quot; rel=&quot;nofollow&quot; target=&quot;_NEW&quot;&gt;\nhttp://img259.imageshack.us/img259/2752/grab63w.png&lt;/a&gt; &lt;a href=&quot;\nhttp://img145.imageshack.us/img145/8256/grab64.png&quot; rel=&quot;nofollow&quot; target=&quot;_NEW&quot;&gt;\nhttp://img145.imageshack.us/img145/8256/grab64.png&lt;/a&gt;","torrent":{"xt":"urn:btih:6ef2e60f6443c4e366ce7564a839a800867a25d3","amp;dn":"Yoko++%282012%29+SATRip+%5BRussian%5D","amp;tr":["udp%3A%2F%2Ftracker.openbittorrent.com%3A80","udp%3A%2F%2Fopen.demonii.com%3A1337","udp%3A%2F%2Ftracker.coppersurfer.tk%3A6969","udp%3A%2F%2Fexodus.desync.com%3A6969"],"infoHash":"6ef2e60f6443c4e366ce7564a839a800867a25d3","infoHashBuffer":{"type":"Buffer","data":[110,242,230,15,100,67,196,227,102,206,117,100,168,57,168,0,134,122,37,211]},"announce":[],"urlList":[]}}